<svg xmlns="http://www.w3.org/2000/svg" xmlns:xlink="http://www.w3.org/1999/xlink" width="500" zoomAndPan="magnify" viewBox="0 0 375 374.999991" height="500" preserveAspectRatio="xMidYMid meet" version="1.0"><path fill="#fdfdf1" d="M 187.511719 14.742188 C 92.246094 14.742188 14.738281 92.25 14.738281 187.515625 C 14.738281 282.78125 92.246094 360.289062 187.511719 360.289062 C 282.78125 360.289062 360.285156 282.78125 360.285156 187.515625 C 360.285156 92.25 282.78125 14.742188 187.511719 14.742188 Z M 187.511719 375.027344 C 162.203125 375.027344 137.644531 370.070312 114.523438 360.292969 C 92.191406 350.847656 72.140625 337.324219 54.921875 320.105469 C 37.703125 302.886719 24.183594 282.835938 14.738281 260.503906 C 4.960938 237.382812 0 212.828125 0 187.515625 C 0 162.203125 4.960938 137.648438 14.738281 114.527344 C 24.183594 92.195312 37.703125 72.144531 54.921875 54.925781 C 72.140625 37.707031 92.191406 24.1875 114.523438 14.742188 C 137.644531 4.960938 162.203125 0.00390625 187.511719 0.00390625 C 212.824219 0.00390625 237.378906 4.960938 260.503906 14.742188 C 282.832031 24.1875 302.886719 37.707031 320.105469 54.925781 C 337.320312 72.144531 350.839844 92.195312 360.285156 114.527344 C 370.066406 137.648438 375.027344 162.203125 375.027344 187.515625 C 375.027344 212.828125 370.066406 237.382812 360.285156 260.503906 C 350.839844 282.835938 337.320312 302.886719 320.105469 320.105469 C 302.886719 337.324219 282.832031 350.847656 260.503906 360.292969 C 237.378906 370.070312 212.824219 375.027344 187.511719 375.027344 " fill-opacity="1" fill-rule="nonzero"/><path fill="#fdfdf1" d="M 296.207031 322.589844 C 275.421875 301.335938 260.054688 274.769531 252.355469 245.136719 C 260.351562 242.96875 268.222656 240.253906 275.921875 236.996094 C 281.152344 234.78125 286.253906 232.34375 291.222656 229.683594 C 297.070312 247.121094 300.242188 265.777344 300.242188 285.160156 C 300.242188 298.003906 298.851562 310.527344 296.207031 322.589844 Z M 246.8125 201.613281 C 246.8125 188.574219 248.265625 175.867188 251.011719 163.644531 C 266.515625 179.675781 278.996094 198.648438 287.507812 219.644531 C 275.757812 226.082031 263.195312 231.207031 250.011719 234.828125 C 247.914062 224.074219 246.8125 212.972656 246.8125 201.613281 Z M 232.773438 201.613281 C 232.773438 213.949219 233.957031 226.105469 236.300781 238 C 225.75 239.992188 214.871094 241.039062 203.75 241.039062 C 175.511719 241.039062 148.8125 234.304688 125.179688 222.367188 C 126.875 221.707031 128.570312 221.027344 130.253906 220.3125 C 152.230469 211.015625 171.960938 197.710938 188.910156 180.765625 C 201.523438 168.152344 212.121094 153.992188 220.546875 138.511719 C 227.101562 142.785156 233.351562 147.476562 239.261719 152.5625 C 234.953125 168.453125 232.773438 184.867188 232.773438 201.613281 Z M 114.980469 216.707031 C 112.390625 203.851562 111.027344 190.558594 111.027344 176.953125 C 111.027344 153.601562 115.03125 131.167969 122.394531 110.308594 C 123.382812 110.289062 124.371094 110.28125 125.363281 110.28125 C 157.277344 110.28125 187.222656 118.875 213.003906 133.871094 C 192.054688 172.449219 157.085938 202.359375 114.980469 216.707031 Z M 96.988281 176.953125 C 96.988281 186.761719 97.640625 196.476562 98.933594 206.0625 C 73.648438 187.066406 53.660156 161.386719 41.609375 131.675781 C 61.472656 120.792969 83.660156 113.65625 107.226562 111.214844 C 100.425781 132.359375 96.988281 154.394531 96.988281 176.953125 Z M 296.710938 214.230469 C 296.539062 213.816406 296.371094 213.402344 296.199219 212.988281 C 286.859375 190.910156 273.492188 171.082031 256.46875 154.054688 C 255.691406 153.285156 254.914062 152.519531 254.128906 151.761719 C 265.023438 115.597656 287.457031 84.386719 317.125 62.414062 C 313.808594 58.976562 310.355469 55.671875 306.777344 52.507812 C 300.046875 57.628906 293.644531 63.21875 287.59375 69.269531 C 270.40625 86.457031 256.910156 106.472656 247.484375 128.761719 C 245.703125 132.972656 244.085938 137.226562 242.625 141.527344 C 237.109375 137.011719 231.351562 132.828125 225.375 128.992188 C 226.445312 126.722656 227.472656 124.433594 228.453125 122.113281 C 238.078125 99.359375 242.957031 75.191406 242.957031 50.285156 C 242.957031 38.332031 241.820312 26.554688 239.589844 15.015625 C 236.453125 14.074219 233.28125 13.210938 230.074219 12.429688 C 232.761719 24.628906 234.183594 37.292969 234.183594 50.285156 C 234.183594 76.746094 228.304688 101.855469 217.785156 124.382812 C 211.273438 120.632812 204.515625 117.277344 197.535156 114.324219 C 175.007812 104.796875 151.101562 99.898438 126.460938 99.757812 C 142.253906 61.976562 169.277344 30.011719 203.332031 8.058594 C 198.121094 7.605469 192.84375 7.375 187.511719 7.375 C 184.886719 7.375 182.273438 7.433594 179.675781 7.542969 C 172.773438 12.941406 166.175781 18.777344 159.910156 25.046875 C 140.179688 44.773438 124.691406 67.746094 113.871094 93.332031 C 112.898438 95.636719 111.964844 97.960938 111.070312 100.289062 C 91.085938 101.804688 71.675781 106.503906 53.191406 114.324219 C 47.964844 116.535156 42.863281 118.976562 37.894531 121.632812 C 35.238281 113.714844 33.140625 105.542969 31.636719 97.164062 C 28.878906 101.914062 26.328125 106.800781 24 111.816406 C 25.300781 116.929688 26.816406 121.988281 28.554688 126.988281 C 23.8125 129.894531 19.207031 133.011719 14.746094 136.335938 C 13.105469 141.886719 11.722656 147.546875 10.617188 153.304688 C 17.433594 147.363281 24.71875 141.933594 32.402344 137.089844 C 32.574219 137.503906 32.742188 137.917969 32.917969 138.332031 C 42.257812 160.410156 55.625 180.238281 72.652344 197.261719 C 81.480469 206.089844 91.0625 213.933594 101.320312 220.742188 C 87.589844 224.199219 73.21875 226.039062 58.425781 226.039062 C 41.695312 226.039062 25.503906 223.6875 10.167969 219.300781 C 10.746094 222.558594 11.414062 225.78125 12.167969 228.972656 C 27.175781 232.855469 42.652344 234.8125 58.425781 234.8125 C 73.753906 234.8125 88.796875 232.964844 103.402344 229.300781 C 106.070312 239.941406 109.558594 250.378906 113.871094 260.578125 C 116.578125 266.96875 119.570312 273.199219 122.851562 279.257812 C 120.578125 279.175781 118.292969 279.132812 116.007812 279.132812 C 91.21875 279.132812 67.164062 283.992188 44.523438 293.566406 C 43.851562 293.851562 43.183594 294.136719 42.515625 294.429688 C 43.960938 296.386719 45.445312 298.3125 46.96875 300.210938 C 68.183594 291.164062 91.519531 286.152344 116.007812 286.152344 C 119.683594 286.152344 123.335938 286.265625 126.957031 286.492188 C 136.074219 301.867188 147.097656 316.046875 159.910156 328.859375 C 174.875 343.828125 191.710938 356.351562 210.136719 366.25 C 218.042969 365.257812 225.792969 363.753906 233.347656 361.773438 C 197.265625 346.394531 166.570312 320.746094 144.953125 288.523438 C 189.625 295.917969 228.6875 320.136719 255.402344 354.425781 C 257.671875 353.503906 259.917969 352.53125 262.140625 351.519531 C 257.164062 345 251.738281 338.792969 245.871094 332.921875 C 229.003906 316.058594 209.367188 302.816406 187.496094 293.566406 C 172.21875 287.105469 156.296875 282.796875 139.945312 280.671875 C 130.613281 265.269531 123.292969 248.511719 118.351562 230.773438 C 122.667969 233.011719 127.074219 235.089844 131.582031 236.996094 C 154.445312 246.664062 178.726562 251.570312 203.75 251.570312 C 215.570312 251.570312 227.222656 250.472656 238.636719 248.300781 C 240.921875 257.195312 243.871094 265.929688 247.484375 274.46875 C 256.910156 296.757812 270.40625 316.773438 287.59375 333.957031 C 288.261719 334.628906 288.9375 335.289062 289.613281 335.949219 C 295.714844 331.742188 301.539062 327.175781 307.066406 322.273438 C 309.527344 310.148438 310.769531 297.746094 310.769531 285.160156 C 310.769531 264.230469 307.339844 243.824219 300.5625 224.332031 C 312.957031 216.734375 324.433594 207.6875 334.855469 197.261719 C 346.800781 185.316406 356.945312 171.988281 365.160156 157.476562 C 364.238281 151.984375 363.066406 146.578125 361.660156 141.269531 C 347.324219 171.289062 324.675781 196.609375 296.710938 214.230469 " fill-opacity="1" fill-rule="nonzero"/><path fill="#fdfdf1" d="M 315.601562 223.167969 C 315.601562 234.632812 306.308594 243.929688 294.84375 243.929688 C 283.378906 243.929688 274.085938 234.632812 274.085938 223.167969 C 274.085938 211.707031 283.378906 202.410156 294.84375 202.410156 C 306.308594 202.410156 315.601562 211.707031 315.601562 223.167969 " fill-opacity="1" fill-rule="nonzero"/><path fill="#fdfdf1" d="M 263.90625 150.757812 C 263.90625 160.035156 256.382812 167.558594 247.105469 167.558594 C 237.828125 167.558594 230.304688 160.035156 230.304688 150.757812 C 230.304688 141.484375 237.828125 133.960938 247.105469 133.960938 C 256.382812 133.960938 263.90625 141.484375 263.90625 150.757812 " fill-opacity="1" fill-rule="nonzero"/><path fill="#fdfdf1" d="M 128.117188 219.589844 C 128.117188 231.128906 118.765625 240.480469 107.226562 240.480469 C 95.6875 240.480469 86.335938 231.128906 86.335938 219.589844 C 86.335938 208.054688 95.6875 198.699219 107.226562 198.699219 C 118.765625 198.699219 128.117188 208.054688 128.117188 219.589844 " fill-opacity="1" fill-rule="nonzero"/><path fill="#fdfdf1" d="M 130.65625 105.796875 C 130.65625 114.050781 123.964844 120.742188 115.710938 120.742188 C 107.457031 120.742188 100.765625 114.050781 100.765625 105.796875 C 100.765625 97.542969 107.457031 90.851562 115.710938 90.851562 C 123.964844 90.851562 130.65625 97.542969 130.65625 105.796875 " fill-opacity="1" fill-rule="nonzero"/><path fill="#fdfdf1" d="M 49.304688 129.253906 C 49.304688 137.507812 42.613281 144.199219 34.359375 144.199219 C 26.105469 144.199219 19.414062 137.507812 19.414062 129.253906 C 19.414062 121 26.105469 114.308594 34.359375 114.308594 C 42.613281 114.308594 49.304688 121 49.304688 129.253906 " fill-opacity="1" fill-rule="nonzero"/><path fill="#fdfdf1" d="M 230.367188 129.253906 C 230.367188 135.03125 225.6875 139.710938 219.914062 139.710938 C 214.140625 139.710938 209.460938 135.03125 209.460938 129.253906 C 209.460938 123.480469 214.140625 118.804688 219.914062 118.804688 C 225.6875 118.804688 230.367188 123.480469 230.367188 129.253906 " fill-opacity="1" fill-rule="nonzero"/></svg>